<svg id="Layer_1" data-name="Layer 1" xmlns="http://www.w3.org/2000/svg" viewBox="0 0 128 128"><defs><style>.cls-1{fill:#2e79bd;}.cls-2{fill:#2d3e50;}</style></defs><title>b</title><path class="cls-1" d="M56.07341,41.20715H75.67266a1.95984,1.95984,0,1,0,0-3.91968H56.07341a1.95984,1.95984,0,1,0,0,3.91968Z" id="id_101" style="fill: rgb(255, 255, 255);"></path><path class="cls-1" d="M48.23375,37.28748H20.79461a1.95984,1.95984,0,1,0,0,3.91968H48.23375a1.95984,1.95984,0,1,0,0-3.91968Z" id="id_102" style="fill: rgb(255, 255, 255);"></path><path class="cls-1" d="M20.79461,57.978H44.31377a1.95987,1.95987,0,0,0,0-3.91974H20.79461a1.95987,1.95987,0,1,0,0,3.91974Z" id="id_103" style="fill: rgb(255, 255, 255);"></path><path class="cls-1" d="M61.73064,54.05823h-9.577a1.95987,1.95987,0,0,0,0,3.91974h9.577a1.95987,1.95987,0,0,0,0-3.91974Z" id="id_104" style="fill: rgb(255, 255, 255);"></path><path class="cls-1" d="M46.26928,87.01581h-.013c-.92529.01434-1.85052.03522-2.77576.05609l-.70923.016c-.43945.01013-.87891.03-1.31805.04993l-.07538.0036c-.707.033-1.28052.05023-1.85571.05676a11.00657,11.00657,0,0,0-.33832-3.66541l-.04663-.14258a4.37328,4.37328,0,0,0-5.0647-3.02173,5.05546,5.05546,0,0,0-.54773.14392A7.35013,7.35013,0,1,0,19.45958,83.507l1.89453,4.404a1.7567,1.7567,0,0,0,3.22723-1.38885l-1.89453-4.40369A3.83115,3.83115,0,0,1,23.96343,77.381,3.9048,3.9048,0,0,1,29.969,81.27026l-.86261,5.25616-.0271.11713c-.0238.10278-.0473.20551-.074.30664a1.75626,1.75626,0,0,0,3.38318.94354,1.68361,1.68361,0,0,0,.1178-.39313l.046-.28088.03357-.139c.0163-.06653.03265-.13275.048-.20032a8.64571,8.64571,0,0,1,.55133-1.83575,2.41986,2.41986,0,0,1,1.58752-1.23389c.70764-.14453.9931.57648,1.04077.71643l.0163.04932a8.18937,8.18937,0,0,1,.17944,2.56525,3.85961,3.85961,0,0,0,.54773,2.34735,2.99107,2.99107,0,0,0,2.65668,1.22345l.291-.00165c.67273-.00323,1.34674-.02869,1.995-.05841l.04205-.002c.43652-.0202.873-.04077,1.30829-.0509l.47144-.01007c.99664-.02289,1.99335-.04535,2.99005-.061a1.75649,1.75649,0,0,0-.04211-3.5127Z" id="id_105" style="fill: rgb(255, 255, 255);"></path><path class="cls-1" d="M84.63414,86.44952a5.53978,5.53978,0,0,1-5.50293-2.33234l-.38043-.558L73.68023,94.14832l4.88812-.19324,2.91455,3.92914L87.14769,86.057l-.06525-.02777Z" id="id_106" style="fill: rgb(255, 255, 255);"></path><path class="cls-1" d="M97.09307,84.308l-1.83228,1.67889a5.53856,5.53856,0,0,1-3.7395,1.44818c-.05072,0-.10022-.00122-.151-.00238L96.3756,97.88422l2.91333-3.92914,4.88812.19324L99.28533,83.93237Z" id="id_107" style="fill: rgb(255, 255, 255);"></path><path class="cls-1" d="M104.66124,67.6972l.81555-3.08813a3.11175,3.11175,0,0,0-1.03607-3.20129l-2.47028-2.02472-.98352-3.03888a3.11183,3.11183,0,0,0-2.60229-2.13293l-3.17285-.36774-2.47034-2.02478a3.11178,3.11178,0,0,0-3.34235-.38739l-2.868,1.40594-3.17279-.36774a3.11169,3.11169,0,0,0-3.02124,1.48108L78.68456,56.684l-2.868,1.40594a3.11182,3.11182,0,0,0-1.74084,2.87939l.08752,3.19287-1.65259,2.73328a3.11208,3.11208,0,0,0,.09216,3.36353l1.7998,2.63867.08759,3.19287a3.11174,3.11174,0,0,0,1.896,2.77966l2.94067,1.24677,1.7998,2.63873A3.11181,3.11181,0,0,0,84.22442,84.069l3.14795-.541L90.313,84.77478a3.11175,3.11175,0,0,0,3.3161-.56995l2.35577-2.157,3.14783-.541a3.1118,3.1118,0,0,0,2.48163-2.27222l.81555-3.0882,2.35571-2.157a3.11166,3.11166,0,0,0,.85907-3.25317Z" id="id_108" style="fill: rgb(255, 255, 255);"></path><path class="cls-2" d="M126.71,35.10773a7.15866,7.15866,0,0,0-1.835-4.96234c-5.257-6.051-10.87964-12.54614-16.37744-19.045a6.379,6.379,0,0,0-5.21716-2.37189l-.03931.00012c-6.01587.02454-12.13391.019-18.05084.01355q-3.30258-.00311-6.605-.00464l-12.509-.0033Q36.05553,8.72656,6.035,8.72058H6.03319a4.84844,4.84844,0,0,0-3.489,1.14648A4.4935,4.4935,0,0,0,1.29265,13.2829c-.00348,31.36688-.00372,69.91846.00024,101.28546.00024,3.03741,1.68793,4.71033,4.7522,4.71057q10.65866.00037,21.31421.00049,18.25378,0,36.51068-.00122l21.20239-.00067q18.311,0,36.62256-.00214c3.50183-.00067,4.99609-1.50568,4.99609-5.03235l-.00043-13.92639C126.68938,81.299,126.68822,54.44885,126.71,35.10773Zm-8.60889,75.5686H9.89989v-93.336H99.96233l-.00049,4.6687q-.00064,5.70593.0014,11.41156c.00189,3.25085,1.66571,4.8996,4.94543,4.90051,3.38892.00067,6.77759.00055,10.21631.00049l2.97614-.00012Z" id="id_109" style="fill: rgb(255, 255, 255);"></path></svg>